<svg width="404" height="328" viewBox="0 0 404 328" fill="none" xmlns="http://www.w3.org/2000/svg">
<g filter="url(#filter0_f_2_26)">
<circle cx="244" cy="105" r="61" fill="#FFC701" fill-opacity="0.5"/>
<circle cx="244" cy="105" r="60.5" stroke="url(#paint0_linear_2_26)"/>
</g>
<circle cx="244" cy="107" r="58" fill="url(#paint1_linear_2_26)" stroke="url(#paint2_linear_2_26)" stroke-width="2"/>
<mask id="mask0_2_26" style="mask-type:alpha" maskUnits="userSpaceOnUse" x="185" y="81" width="118" height="85">
<path d="M302.5 107C302.5 139.309 276.309 165.5 244 165.5C211.691 165.5 185.5 139.309 185.5 107C185.5 98.8989 186.864 93.3772 189.35 89.6231C191.824 85.8881 195.453 83.8369 200.142 82.7682C204.849 81.6954 210.586 81.6219 217.222 81.8238C219.339 81.8882 221.548 81.9806 223.839 82.0766C228.709 82.2804 233.955 82.5 239.5 82.5C244.854 82.5 250.173 82.2952 255.306 82.0976C257.989 81.9943 260.622 81.893 263.182 81.8238C270.66 81.622 277.533 81.6942 283.379 82.7724C289.221 83.85 293.98 85.9226 297.285 89.6774C300.587 93.4285 302.5 98.9308 302.5 107Z" fill="url(#paint3_linear_2_26)" stroke="url(#paint4_linear_2_26)"/>
</mask>
<g mask="url(#mask0_2_26)">
<g filter="url(#filter1_f_2_26)">
<mask id="path-5-inside-1_2_26" fill="white">
<path fill-rule="evenodd" clip-rule="evenodd" d="M290.5 257.997C290.666 257.999 290.833 258 291 258C314.748 258 334 238.748 334 215C334 191.252 314.748 172 291 172C290.833 172 290.666 172.001 290.5 172.003V172H263.087C263.688 168.423 264 164.748 264 161C264 124.549 234.451 95 198 95C161.549 95 132 124.549 132 161C132 164.894 132.337 168.709 132.984 172.418C112.084 175.344 96 193.293 96 215C96 238.748 115.252 258 139 258C139.168 258 139.335 257.999 139.502 257.997L139.5 258H290.5V257.997Z"/>
</mask>
<path fill-rule="evenodd" clip-rule="evenodd" d="M290.5 257.997C290.666 257.999 290.833 258 291 258C314.748 258 334 238.748 334 215C334 191.252 314.748 172 291 172C290.833 172 290.666 172.001 290.5 172.003V172H263.087C263.688 168.423 264 164.748 264 161C264 124.549 234.451 95 198 95C161.549 95 132 124.549 132 161C132 164.894 132.337 168.709 132.984 172.418C112.084 175.344 96 193.293 96 215C96 238.748 115.252 258 139 258C139.168 258 139.335 257.999 139.502 257.997L139.5 258H290.5V257.997Z" fill="#E18700"/>
<path d="M290.5 257.997L290.523 255.997C289.988 255.991 289.474 256.199 289.094 256.575C288.714 256.951 288.5 257.463 288.5 257.997H290.5ZM290.5 172.003H288.5C288.5 172.537 288.714 173.049 289.094 173.425C289.474 173.801 289.988 174.009 290.523 174.003L290.5 172.003ZM290.5 172H292.5C292.5 170.895 291.605 170 290.5 170V172ZM263.087 172L261.115 171.669C261.018 172.249 261.181 172.843 261.561 173.292C261.941 173.741 262.499 174 263.087 174V172ZM132.984 172.418L133.261 174.398C133.798 174.323 134.281 174.033 134.601 173.595C134.92 173.157 135.047 172.608 134.954 172.074L132.984 172.418ZM139.502 257.997L141.072 259.237C141.549 258.632 141.637 257.807 141.297 257.115C140.957 256.423 140.25 255.988 139.479 255.997L139.502 257.997ZM139.5 258L137.931 256.76C137.455 257.362 137.366 258.182 137.7 258.872C138.034 259.562 138.733 260 139.5 260V258ZM290.5 258V260C291.605 260 292.5 259.105 292.5 258H290.5ZM290.477 259.997C290.651 259.999 290.825 260 291 260V256C290.841 256 290.682 255.999 290.523 255.997L290.477 259.997ZM291 260C315.853 260 336 239.853 336 215H332C332 237.644 313.644 256 291 256V260ZM336 215C336 190.147 315.853 170 291 170V174C313.644 174 332 192.356 332 215H336ZM291 170C290.826 170 290.651 170.001 290.477 170.003L290.523 174.003C290.682 174.001 290.841 174 291 174V170ZM288.5 172V172.003H292.5V172H288.5ZM263.087 174H290.5V170H263.087V174ZM265.06 172.331C265.678 168.645 266 164.859 266 161H262C262 164.637 261.697 168.201 261.115 171.669L265.06 172.331ZM266 161C266 123.445 235.555 93 198 93V97C233.346 97 262 125.654 262 161H266ZM198 93C160.445 93 130 123.445 130 161H134C134 125.654 162.654 97 198 97V93ZM130 161C130 165.009 130.347 168.939 131.014 172.761L134.954 172.074C134.327 168.478 134 164.778 134 161H130ZM132.707 170.437C110.832 173.499 94 192.282 94 215H98C98 194.305 113.335 177.188 133.261 174.398L132.707 170.437ZM94 215C94 239.853 114.147 260 139 260V256C116.356 256 98 237.644 98 215H94ZM139 260C139.175 260 139.35 259.999 139.525 259.997L139.479 255.997C139.32 255.999 139.16 256 139 256V260ZM141.069 259.24L141.072 259.237L137.933 256.757L137.931 256.76L141.069 259.24ZM290.5 256H139.5V260H290.5V256ZM288.5 257.997V258H292.5V257.997H288.5Z" fill="url(#paint5_linear_2_26)" mask="url(#path-5-inside-1_2_26)"/>
</g>
</g>
<g filter="url(#filter2_bd_2_26)">
<mask id="path-7-inside-2_2_26" fill="white">
<path fill-rule="evenodd" clip-rule="evenodd" d="M265.5 262.997C265.666 262.999 265.833 263 266 263C289.748 263 309 243.748 309 220C309 196.252 289.748 177 266 177C265.833 177 265.666 177.001 265.5 177.003V177H254.391C254.793 174.057 255 171.053 255 168C255 131.549 225.451 102 189 102C152.549 102 123 131.549 123 168C123 171.439 123.263 174.817 123.77 178.115C120.631 177.386 117.361 177 114 177C90.2518 177 71 196.252 71 220C71 243.748 90.2518 263 114 263C114.168 263 114.335 262.999 114.502 262.997L114.5 263H265.5V262.997Z"/>
</mask>
<path fill-rule="evenodd" clip-rule="evenodd" d="M265.5 262.997C265.666 262.999 265.833 263 266 263C289.748 263 309 243.748 309 220C309 196.252 289.748 177 266 177C265.833 177 265.666 177.001 265.5 177.003V177H254.391C254.793 174.057 255 171.053 255 168C255 131.549 225.451 102 189 102C152.549 102 123 131.549 123 168C123 171.439 123.263 174.817 123.77 178.115C120.631 177.386 117.361 177 114 177C90.2518 177 71 196.252 71 220C71 243.748 90.2518 263 114 263C114.168 263 114.335 262.999 114.502 262.997L114.5 263H265.5V262.997Z" fill="url(#paint6_linear_2_26)" shape-rendering="crispEdges"/>
<path d="M265.5 262.997L265.523 260.997C264.988 260.991 264.474 261.199 264.094 261.575C263.714 261.951 263.5 262.463 263.5 262.997H265.5ZM265.5 177.003H263.5C263.5 177.537 263.714 178.049 264.094 178.425C264.474 178.801 264.988 179.009 265.523 179.003L265.5 177.003ZM265.5 177H267.5C267.5 175.895 266.605 175 265.5 175V177ZM254.391 177L252.41 176.73C252.332 177.302 252.505 177.88 252.885 178.315C253.265 178.75 253.814 179 254.391 179V177ZM123.77 178.115L123.318 180.063C123.964 180.213 124.643 180.033 125.13 179.582C125.617 179.13 125.848 178.467 125.747 177.811L123.77 178.115ZM114.502 262.997L116.072 264.237C116.549 263.632 116.637 262.807 116.297 262.115C115.957 261.423 115.25 260.988 114.479 260.997L114.502 262.997ZM114.5 263L112.931 261.76C112.455 262.362 112.366 263.182 112.7 263.872C113.034 264.562 113.733 265 114.5 265V263ZM265.5 263V265C266.605 265 267.5 264.105 267.5 263H265.5ZM265.477 264.997C265.651 264.999 265.825 265 266 265V261C265.841 261 265.682 260.999 265.523 260.997L265.477 264.997ZM266 265C290.853 265 311 244.853 311 220H307C307 242.644 288.644 261 266 261V265ZM311 220C311 195.147 290.853 175 266 175V179C288.644 179 307 197.356 307 220H311ZM266 175C265.826 175 265.651 175.001 265.477 175.003L265.523 179.003C265.682 179.001 265.841 179 266 179V175ZM263.5 177V177.003H267.5V177H263.5ZM254.391 179H265.5V175H254.391V179ZM256.373 177.27C256.787 174.238 257 171.143 257 168H253C253 170.962 252.799 173.876 252.41 176.73L256.373 177.27ZM257 168C257 130.445 226.555 100 189 100V104C224.346 104 253 132.654 253 168H257ZM189 100C151.445 100 121 130.445 121 168H125C125 132.654 153.654 104 189 104V100ZM121 168C121 171.542 121.271 175.021 121.793 178.419L125.747 177.811C125.255 174.614 125 171.337 125 168H121ZM124.223 176.167C120.937 175.403 117.514 175 114 175V179C117.207 179 120.326 179.368 123.318 180.063L124.223 176.167ZM114 175C89.1472 175 69 195.147 69 220H73C73 197.356 91.3563 179 114 179V175ZM69 220C69 244.853 89.1472 265 114 265V261C91.3563 261 73 242.644 73 220H69ZM114 265C114.175 265 114.35 264.999 114.525 264.997L114.479 260.997C114.32 260.999 114.16 261 114 261V265ZM116.069 264.24L116.072 264.237L112.933 261.757L112.931 261.76L116.069 264.24ZM265.5 261H114.5V265H265.5V261ZM263.5 262.997V263H267.5V262.997H263.5Z" fill="url(#paint7_linear_2_26)" mask="url(#path-7-inside-2_2_26)"/>
</g>
<g filter="url(#filter3_bd_2_26)">
<mask id="path-9-inside-3_2_26" fill="white">
<path fill-rule="evenodd" clip-rule="evenodd" d="M343.563 218.351C343.683 218.352 343.804 218.353 343.924 218.353C361.087 218.353 375 204.44 375 187.277C375 170.115 361.087 156.202 343.924 156.202C343.804 156.202 343.683 156.202 343.563 156.204V156.202H335.535C335.825 154.075 335.975 151.904 335.975 149.697C335.975 123.355 314.62 102 288.277 102C261.935 102 240.58 123.355 240.58 149.697C240.58 152.183 240.77 154.624 241.136 157.007C238.868 156.48 236.504 156.202 234.076 156.202C216.913 156.202 203 170.115 203 187.277C203 204.44 216.913 218.353 234.076 218.353C234.197 218.353 234.318 218.352 234.439 218.351L234.437 218.353H343.563V218.351Z"/>
</mask>
<path fill-rule="evenodd" clip-rule="evenodd" d="M343.563 218.351C343.683 218.352 343.804 218.353 343.924 218.353C361.087 218.353 375 204.44 375 187.277C375 170.115 361.087 156.202 343.924 156.202C343.804 156.202 343.683 156.202 343.563 156.204V156.202H335.535C335.825 154.075 335.975 151.904 335.975 149.697C335.975 123.355 314.62 102 288.277 102C261.935 102 240.58 123.355 240.58 149.697C240.58 152.183 240.77 154.624 241.136 157.007C238.868 156.48 236.504 156.202 234.076 156.202C216.913 156.202 203 170.115 203 187.277C203 204.44 216.913 218.353 234.076 218.353C234.197 218.353 234.318 218.352 234.439 218.351L234.437 218.353H343.563V218.351Z" fill="url(#paint8_linear_2_26)" shape-rendering="crispEdges"/>
<path d="M343.563 218.351L343.586 216.351C343.052 216.345 342.537 216.553 342.157 216.929C341.777 217.304 341.563 217.816 341.563 218.351H343.563ZM343.563 156.204H341.563C341.563 156.738 341.777 157.25 342.157 157.626C342.537 158.002 343.051 158.21 343.586 158.204L343.563 156.204ZM343.563 156.202H345.563C345.563 155.097 344.668 154.202 343.563 154.202V156.202ZM335.535 156.202L333.553 155.931C333.475 156.504 333.649 157.082 334.028 157.517C334.408 157.952 334.957 158.202 335.535 158.202V156.202ZM241.136 157.007L240.684 158.955C241.33 159.106 242.009 158.925 242.496 158.474C242.983 158.023 243.214 157.359 243.113 156.703L241.136 157.007ZM234.439 218.351L236.008 219.59C236.486 218.985 236.573 218.16 236.233 217.468C235.893 216.777 235.186 216.342 234.416 216.351L234.439 218.351ZM234.437 218.353L232.867 217.114C232.392 217.715 232.303 218.535 232.637 219.225C232.971 219.915 233.67 220.353 234.437 220.353V218.353ZM343.563 218.353V220.353C344.668 220.353 345.563 219.458 345.563 218.353H343.563ZM343.54 220.351C343.668 220.352 343.796 220.353 343.924 220.353V216.353C343.811 216.353 343.699 216.352 343.586 216.351L343.54 220.351ZM343.924 220.353C362.192 220.353 377 205.544 377 187.277H373C373 203.335 359.982 216.353 343.924 216.353V220.353ZM377 187.277C377 169.01 362.192 154.202 343.924 154.202V158.202C359.982 158.202 373 171.219 373 187.277H377ZM343.924 154.202C343.796 154.202 343.668 154.202 343.54 154.204L343.586 158.204C343.698 158.202 343.811 158.202 343.924 158.202V154.202ZM341.563 156.202V156.204H345.563V156.202H341.563ZM335.535 158.202H343.563V154.202H335.535V158.202ZM337.517 156.472C337.819 154.256 337.975 151.994 337.975 149.697H333.975C333.975 151.813 333.831 153.894 333.553 155.931L337.517 156.472ZM337.975 149.697C337.975 122.25 315.724 100 288.277 100V104C313.515 104 333.975 124.459 333.975 149.697H337.975ZM288.277 100C260.83 100 238.58 122.25 238.58 149.697H242.58C242.58 124.459 263.039 104 288.277 104V100ZM238.58 149.697C238.58 152.285 238.778 154.828 239.16 157.311L243.113 156.703C242.762 154.421 242.58 152.081 242.58 149.697H238.58ZM241.589 155.059C239.173 154.498 236.658 154.202 234.076 154.202V158.202C236.351 158.202 238.563 158.463 240.684 158.955L241.589 155.059ZM234.076 154.202C215.808 154.202 201 169.01 201 187.277H205C205 171.219 218.018 158.202 234.076 158.202V154.202ZM201 187.277C201 205.544 215.808 220.353 234.076 220.353V216.353C218.018 216.353 205 203.335 205 187.277H201ZM234.076 220.353C234.204 220.353 234.333 220.352 234.461 220.351L234.416 216.351C234.303 216.352 234.189 216.353 234.076 216.353V220.353ZM236.007 219.592L236.008 219.59L232.869 217.112L232.867 217.114L236.007 219.592ZM343.563 216.353H234.437V220.353H343.563V216.353ZM341.563 218.351V218.353H345.563V218.351H341.563Z" fill="url(#paint9_linear_2_26)" mask="url(#path-9-inside-3_2_26)"/>
</g>
<defs>
<filter id="filter0_f_2_26" x="139" y="0" width="210" height="210" filterUnits="userSpaceOnUse" color-interpolation-filters="sRGB">
<feFlood flood-opacity="0" result="BackgroundImageFix"/>
<feBlend mode="normal" in="SourceGraphic" in2="BackgroundImageFix" result="shape"/>
<feGaussianBlur stdDeviation="22" result="effect1_foregroundBlur_2_26"/>
</filter>
<filter id="filter1_f_2_26" x="82" y="81" width="266" height="191" filterUnits="userSpaceOnUse" color-interpolation-filters="sRGB">
<feFlood flood-opacity="0" result="BackgroundImageFix"/>
<feBlend mode="normal" in="SourceGraphic" in2="BackgroundImageFix" result="shape"/>
<feGaussianBlur stdDeviation="7" result="effect1_foregroundBlur_2_26"/>
</filter>
<filter id="filter2_bd_2_26" x="0" y="67" width="338" height="261" filterUnits="userSpaceOnUse" color-interpolation-filters="sRGB">
<feFlood flood-opacity="0" result="BackgroundImageFix"/>
<feGaussianBlur in="BackgroundImageFix" stdDeviation="7"/>
<feComposite in2="SourceAlpha" operator="in" result="effect1_backgroundBlur_2_26"/>
<feColorMatrix in="SourceAlpha" type="matrix" values="0 0 0 0 0 0 0 0 0 0 0 0 0 0 0 0 0 0 127 0" result="hardAlpha"/>
<feOffset dx="-21" dy="15"/>
<feGaussianBlur stdDeviation="25"/>
<feComposite in2="hardAlpha" operator="out"/>
<feColorMatrix type="matrix" values="0 0 0 0 0.113725 0 0 0 0 0.14902 0 0 0 0 0.27451 0 0 0 0.25 0"/>
<feBlend mode="normal" in2="effect1_backgroundBlur_2_26" result="effect2_dropShadow_2_26"/>
<feBlend mode="normal" in="SourceGraphic" in2="effect2_dropShadow_2_26" result="shape"/>
</filter>
<filter id="filter3_bd_2_26" x="132" y="67" width="272" height="216.353" filterUnits="userSpaceOnUse" color-interpolation-filters="sRGB">
<feFlood flood-opacity="0" result="BackgroundImageFix"/>
<feGaussianBlur in="BackgroundImageFix" stdDeviation="7"/>
<feComposite in2="SourceAlpha" operator="in" result="effect1_backgroundBlur_2_26"/>
<feColorMatrix in="SourceAlpha" type="matrix" values="0 0 0 0 0 0 0 0 0 0 0 0 0 0 0 0 0 0 127 0" result="hardAlpha"/>
<feOffset dx="-21" dy="15"/>
<feGaussianBlur stdDeviation="25"/>
<feComposite in2="hardAlpha" operator="out"/>
<feColorMatrix type="matrix" values="0 0 0 0 0.113438 0 0 0 0 0.148981 0 0 0 0 0.275 0 0 0 0.25 0"/>
<feBlend mode="normal" in2="effect1_backgroundBlur_2_26" result="effect2_dropShadow_2_26"/>
<feBlend mode="normal" in="SourceGraphic" in2="effect2_dropShadow_2_26" result="shape"/>
</filter>
<linearGradient id="paint0_linear_2_26" x1="244" y1="44" x2="244" y2="166" gradientUnits="userSpaceOnUse">
<stop stop-color="white"/>
<stop offset="1" stop-color="white" stop-opacity="0"/>
</linearGradient>
<linearGradient id="paint1_linear_2_26" x1="244" y1="48" x2="244" y2="166" gradientUnits="userSpaceOnUse">
<stop stop-color="#FFE600"/>
<stop offset="1" stop-color="#FF7A00"/>
</linearGradient>
<linearGradient id="paint2_linear_2_26" x1="244" y1="48" x2="244" y2="166" gradientUnits="userSpaceOnUse">
<stop stop-color="white"/>
<stop offset="1" stop-color="white" stop-opacity="0"/>
</linearGradient>
<linearGradient id="paint3_linear_2_26" x1="244" y1="48" x2="244" y2="166" gradientUnits="userSpaceOnUse">
<stop stop-color="#FFD600"/>
<stop offset="1" stop-color="#FF7A00"/>
</linearGradient>
<linearGradient id="paint4_linear_2_26" x1="244" y1="81.2346" x2="244" y2="166" gradientUnits="userSpaceOnUse">
<stop stop-color="white"/>
<stop offset="1" stop-color="white" stop-opacity="0"/>
</linearGradient>
<linearGradient id="paint5_linear_2_26" x1="215" y1="95" x2="215" y2="258" gradientUnits="userSpaceOnUse">
<stop stop-color="white"/>
<stop offset="1" stop-color="white" stop-opacity="0"/>
</linearGradient>
<linearGradient id="paint6_linear_2_26" x1="190" y1="50.5" x2="190" y2="285.5" gradientUnits="userSpaceOnUse">
<stop stop-color="white"/>
<stop offset="1" stop-color="white" stop-opacity="0"/>
</linearGradient>
<linearGradient id="paint7_linear_2_26" x1="190" y1="102" x2="190" y2="263" gradientUnits="userSpaceOnUse">
<stop stop-color="white"/>
<stop offset="1" stop-color="white" stop-opacity="0"/>
</linearGradient>
<linearGradient id="paint8_linear_2_26" x1="297" y1="105.5" x2="297" y2="231.5" gradientUnits="userSpaceOnUse">
<stop stop-color="white"/>
<stop offset="1" stop-color="white" stop-opacity="0"/>
</linearGradient>
<linearGradient id="paint9_linear_2_26" x1="289" y1="102" x2="289" y2="218.353" gradientUnits="userSpaceOnUse">
<stop stop-color="white"/>
<stop offset="1" stop-color="white" stop-opacity="0"/>
</linearGradient>
</defs>
</svg>
