<svg width="20" height="20" viewBox="0 0 20 20" fill="none" xmlns="http://www.w3.org/2000/svg">
<path fill-rule="evenodd" clip-rule="evenodd" d="M9.44 0.296007C9.58954 0.149426 9.7906 0.0673218 10 0.0673218C10.2094 0.0673218 10.4105 0.149426 10.56 0.296007L19.56 9.14934C19.7031 9.2996 19.7821 9.49955 19.7806 9.70701C19.779 9.91447 19.6969 10.1132 19.5516 10.2613C19.4063 10.4094 19.2091 10.4952 19.0017 10.5007C18.7943 10.5062 18.5929 10.4309 18.44 10.2907L17.3333 9.20267V16.6667C17.3333 16.8435 17.2631 17.0131 17.1381 17.1381C17.013 17.2631 16.8435 17.3333 16.6667 17.3333H3.33333C3.15652 17.3333 2.98695 17.2631 2.86193 17.1381C2.7369 17.0131 2.66666 16.8435 2.66666 16.6667V9.20267L1.56 10.2907C1.48598 10.3684 1.39707 10.4305 1.29857 10.4731C1.20007 10.5158 1.09398 10.5382 0.986641 10.539C0.879297 10.5398 0.772888 10.519 0.673751 10.4779C0.574614 10.4367 0.484777 10.376 0.409591 10.2994C0.334405 10.2228 0.275408 10.1318 0.236113 10.0319C0.196818 9.932 0.17803 9.82522 0.180867 9.71791C0.183705 9.6106 0.208109 9.50496 0.252628 9.40728C0.297146 9.3096 0.360868 9.22188 0.439998 9.14934L9.44 0.296007ZM10 1.98934L16 7.89067V16H13.3333V11.3333C13.3333 11.1565 13.2631 10.987 13.1381 10.8619C13.013 10.7369 12.8435 10.6667 12.6667 10.6667H8.66667C8.48985 10.6667 8.32029 10.7369 8.19526 10.8619C8.07024 10.987 8 11.1565 8 11.3333V16H4V7.89067L10 1.98934ZM9.33333 16H12V12H9.33333V16Z" fill="white"/>
</svg>
